<svg width="36" height="36" viewBox="0 0 36 36" fill="none" xmlns="http://www.w3.org/2000/svg">
<mask id="path-1-inside-1" fill="white">
<path fill-rule="evenodd" clip-rule="evenodd" d="M3.66313 0H27.1809H35.9998H36V32.6046H27.1809L27.1809 14.8817L6.23604 36.0001L0 29.7124L20.6491 8.89217H3.66313V0Z"/>
</mask>
<path d="M3.66313 0V-0.8H2.86313V0H3.66313ZM36 0H36.8V-0.8H36V0ZM36 32.6046V33.4046H36.8V32.6046H36ZM27.1809 32.6046H26.3809V33.4046H27.1809V32.6046ZM27.1809 14.8817H27.9809V12.939L26.6129 14.3184L27.1809 14.8817ZM6.23604 36.0001L5.66803 36.5635L6.23604 37.1362L6.80406 36.5635L6.23604 36.0001ZM0 29.7124L-0.568015 29.1491L-1.12673 29.7124L-0.568015 30.2757L0 29.7124ZM20.6491 8.89217L21.2171 9.45551L22.5693 8.09217H20.6491V8.89217ZM3.66313 8.89217H2.86313V9.69217H3.66313V8.89217ZM27.1809 -0.8H3.66313V0.8H27.1809V-0.8ZM35.9998 -0.8H27.1809V0.8H35.9998V-0.8ZM36 -0.8H35.9998V0.8H36V-0.8ZM36.8 32.6046V0H35.2V32.6046H36.8ZM27.1809 33.4046H36V31.8046H27.1809V33.4046ZM26.3809 14.8817L26.3809 32.6046H27.9809L27.9809 14.8817H26.3809ZM26.6129 14.3184L5.66803 35.4368L6.80406 36.5635L27.7489 15.4451L26.6129 14.3184ZM6.80406 35.4368L0.568015 29.1491L-0.568015 30.2757L5.66803 36.5635L6.80406 35.4368ZM0.568015 30.2757L21.2171 9.45551L20.0811 8.32882L-0.568015 29.1491L0.568015 30.2757ZM3.66313 9.69217H20.6491V8.09217H3.66313V9.69217ZM2.86313 0V8.89217H4.46313V0H2.86313Z" fill="white" mask="url(#path-1-inside-1)"/>
</svg>
