<svg width="43" height="43" viewBox="0 0 43 43" fill="none" xmlns="http://www.w3.org/2000/svg">
<mask id="path-1-inside-1" fill="white">
<path fill-rule="evenodd" clip-rule="evenodd" d="M23.3718 2.15852L37.2298 16.0165L42.4264 21.2131L42.4265 21.2132L23.214 40.4257L18.0173 35.229L28.4607 24.7856L3.67465 24.8878L3.7051 17.5082L28.1411 17.4073L18.132 7.39828L23.3718 2.15852Z"/>
</mask>
<path d="M37.2298 16.0165L37.7954 15.4508L37.2298 16.0165ZM23.3718 2.15852L23.9375 1.59284L23.3718 1.02715L22.8061 1.59284L23.3718 2.15852ZM42.4264 21.2131L41.8607 21.7788L42.4264 21.2131ZM42.4265 21.2132L42.9921 21.7789L43.5578 21.2132L42.9921 20.6475L42.4265 21.2132ZM23.214 40.4257L22.6483 40.9913L23.214 41.557L23.7797 40.9913L23.214 40.4257ZM18.0173 35.229L17.4516 34.6633L16.8859 35.229L17.4516 35.7946L18.0173 35.229ZM28.4607 24.7856L29.0264 25.3513L30.4 23.9776L28.4574 23.9856L28.4607 24.7856ZM3.67465 24.8878L2.87466 24.8845L2.87133 25.6912L3.67795 25.6878L3.67465 24.8878ZM3.7051 17.5082L3.7018 16.7082L2.90838 16.7114L2.90511 17.5049L3.7051 17.5082ZM28.1411 17.4073L28.1444 18.2073L30.0645 18.1994L28.7068 16.8417L28.1411 17.4073ZM18.132 7.39828L17.5663 6.8326L17.0006 7.39828L17.5663 7.96397L18.132 7.39828ZM37.7954 15.4508L23.9375 1.59284L22.8061 2.72421L36.6641 16.5822L37.7954 15.4508ZM42.992 20.6474L37.7954 15.4508L36.6641 16.5822L41.8607 21.7788L42.992 20.6474ZM42.9921 20.6475L42.992 20.6474L41.8607 21.7788L41.8608 21.7789L42.9921 20.6475ZM23.7797 40.9913L42.9921 21.7789L41.8608 20.6475L22.6483 39.86L23.7797 40.9913ZM17.4516 35.7946L22.6483 40.9913L23.7797 39.86L18.583 34.6633L17.4516 35.7946ZM27.895 24.2199L17.4516 34.6633L18.583 35.7946L29.0264 25.3513L27.895 24.2199ZM28.4574 23.9856L3.67135 24.0879L3.67795 25.6878L28.464 25.5856L28.4574 23.9856ZM4.47465 24.8912L4.50509 17.5115L2.90511 17.5049L2.87466 24.8845L4.47465 24.8912ZM3.7084 18.3081L28.1444 18.2073L28.1378 16.6073L3.7018 16.7082L3.7084 18.3081ZM17.5663 7.96397L27.5754 17.973L28.7068 16.8417L18.6977 6.8326L17.5663 7.96397ZM22.8061 1.59284L17.5663 6.8326L18.6977 7.96397L23.9375 2.72421L22.8061 1.59284Z" fill="#A845F3" mask="url(#path-1-inside-1)"/>
</svg>
