<svg width="43" height="43" viewBox="0 0 43 43" fill="none" xmlns="http://www.w3.org/2000/svg">
<mask id="path-1-inside-1" fill="white">
<path fill-rule="evenodd" clip-rule="evenodd" d="M19.0549 2.15852L5.19688 16.0165L0.00028373 21.2131L0.000175834 21.2132L19.2126 40.4257L24.4093 35.229L13.966 24.7856L38.752 24.8878L38.7215 17.5082L14.2856 17.4073L24.2946 7.39828L19.0549 2.15852Z"/>
</mask>
<path d="M19.0549 2.15852L18.4892 1.59284L19.0549 1.02715L19.6205 1.59284L19.0549 2.15852ZM0.000175834 21.2132L-0.565509 21.7789L-1.13119 21.2132L-0.56551 20.6475L0.000175834 21.2132ZM19.2126 40.4257L19.7783 40.9913L19.2126 41.557L18.6469 40.9913L19.2126 40.4257ZM24.4093 35.229L24.975 34.6633L25.5407 35.229L24.975 35.7946L24.4093 35.229ZM13.966 24.7856L13.4003 25.3513L12.0266 23.9776L13.9693 23.9856L13.966 24.7856ZM38.752 24.8878L39.552 24.8845L39.5553 25.6912L38.7487 25.6878L38.752 24.8878ZM38.7215 17.5082L38.7248 16.7082L39.5183 16.7114L39.5215 17.5049L38.7215 17.5082ZM14.2856 17.4073L14.2823 18.2073L12.3621 18.1994L13.7199 16.8417L14.2856 17.4073ZM24.2946 7.39828L24.8603 6.8326L25.426 7.39828L24.8603 7.96397L24.2946 7.39828ZM4.63119 15.4508L18.4892 1.59284L19.6205 2.72421L5.76256 16.5822L4.63119 15.4508ZM-0.565402 20.6474L4.63119 15.4508L5.76256 16.5822L0.565969 21.7788L-0.565402 20.6474ZM-0.56551 20.6475L-0.565402 20.6474L0.565969 21.7788L0.565861 21.7789L-0.56551 20.6475ZM18.6469 40.9913L-0.565509 21.7789L0.565861 20.6475L19.7783 39.86L18.6469 40.9913ZM24.975 35.7946L19.7783 40.9913L18.6469 39.86L23.8436 34.6633L24.975 35.7946ZM14.5317 24.2199L24.975 34.6633L23.8436 35.7946L13.4003 25.3513L14.5317 24.2199ZM13.9693 23.9856L38.7553 24.0879L38.7487 25.6878L13.9627 25.5856L13.9693 23.9856ZM37.952 24.8912L37.9215 17.5115L39.5215 17.5049L39.552 24.8845L37.952 24.8912ZM38.7182 18.3081L14.2823 18.2073L14.2889 16.6073L38.7248 16.7082L38.7182 18.3081ZM24.8603 7.96397L14.8512 17.973L13.7199 16.8417L23.7289 6.8326L24.8603 7.96397ZM19.6205 1.59284L24.8603 6.8326L23.7289 7.96397L18.4892 2.72421L19.6205 1.59284Z" fill="#A845F3" mask="url(#path-1-inside-1)"/>
</svg>
